<?xml version="1.0" encoding="utf-8"?>
<!-- Generator: Adobe Illustrator 16.0.0, SVG Export Plug-In . SVG Version: 6.00 Build 0)  -->
<!DOCTYPE svg PUBLIC "-//W3C//DTD SVG 1.1//EN" "http://www.w3.org/Graphics/SVG/1.1/DTD/svg11.dtd">
<svg version="1.1" id="Layer_1" xmlns="http://www.w3.org/2000/svg" xmlns:xlink="http://www.w3.org/1999/xlink" x="0px" y="0px"
	 width="256px" height="256px" viewBox="0 0 256 256" enable-background="new 0 0 256 256" xml:space="preserve">
<rect fill="#E05C5C" width="256" height="256"/>
<polygon opacity="0.6" fill="#B94352" points="0,198.584 16.5,181.68 221,182 240.043,164.667 16.001,164.667 16,15 0,31 "/>
<rect x="16" y="15" fill="#FFFFFF" width="224" height="130.001"/>
<rect x="129.001" y="146.667" fill="#FFFFFF" width="111.042" height="18"/>
<rect x="16.001" y="146.667" fill="#FFFFFF" width="111.042" height="18"/>
<path fill-rule="evenodd" clip-rule="evenodd" fill="#E05C5C" d="M73.734,162.09l0.009-5.165l5.137,0.03
	c0.213,0,0.385-0.172,0.385-0.385l0.004-1.473c0-0.102-0.041-0.199-0.114-0.271c-0.072-0.072-0.171-0.112-0.271-0.113l-5.117-0.027
	l-0.033-5.12c0-0.103-0.041-0.198-0.114-0.271c-0.072-0.073-0.171-0.113-0.271-0.115l-1.472,0.006c-0.212,0-0.385,0.173-0.385,0.385
	l0.031,5.138l-5.161,0.009c-0.103,0-0.201,0.039-0.273,0.111c-0.073,0.072-0.114,0.169-0.111,0.273l-0.004,1.473
	c0,0.106,0.041,0.203,0.112,0.273c0.068,0.069,0.165,0.114,0.272,0.112l5.144-0.011l-0.007,5.144c0,0.106,0.042,0.202,0.112,0.272
	c0.069,0.07,0.165,0.115,0.273,0.113l1.474-0.004c0.102,0,0.2-0.039,0.272-0.111C73.695,162.29,73.734,162.191,73.734,162.09z"/>
<polygon fill-rule="evenodd" clip-rule="evenodd" fill="#E05C5C" points="188.423,155.668 182.045,162.045 182.045,149.289 "/>
<g>
	<rect x="16.001" y="172.174" fill="#FFFFFF" width="166.333" height="3"/>
</g>
<polygon opacity="0.6" fill="#B94352" points="0,256 68.993,256.009 87.004,238.038 15.991,238.038 16,182 0,198 "/>
<polygon opacity="0.6" fill="#B94352" points="145.327,256.009 163.338,238.038 92.494,238.038 92.494,182.038 15.854,238.125 
	0,253.906 0,256 "/>
<polygon opacity="0.6" fill="#B94352" points="221.827,256.009 239.838,238.038 168.994,238.038 168.994,182.038 92.319,238.146 
	74.417,256 "/>
<polygon opacity="0.6" fill="#B94352" points="0,198.006 16,182.006 175.75,182.006 182.25,175.188 15.99,175.188 15.99,172.193 
	0,189.095 "/>
<path fill="#E6E6E6" d="M97.755,50.089l-81.88,81.804L16,145.001l110.751,0.583l36-36.001c0,0-33.251,20.917-57.251-1.083
	S97.755,50.089,97.755,50.089z"/>
<g>
	<rect x="15.991" y="182.038" fill="#FFFFFF" width="71.013" height="56"/>
	<rect x="92.494" y="182.038" fill="#FFFFFF" width="71.012" height="56"/>
	<rect x="168.997" y="182.038" fill="#FFFFFF" width="71.012" height="56"/>
</g>
<path fill-rule="evenodd" clip-rule="evenodd" fill="#E05C5C" d="M193.385,227.457c0,0,6.747,1.549,13.128,1.549
	c0,0,7.749,0.182,13.128-1.457l-4.498-23.493l8.965,4.462c0,0,0.75,0.66,1.368-0.045c0.347-0.416,3.034-4.335,4.189-6.249
	c0.545-0.92-0.042-0.99-0.042-0.99l-9.892-5.827c0,0-1.185-1.457-4.467-1.457h-2.826c0,0,0.092,5.873-5.926,5.873
	c0,0-5.926-0.364-5.835-5.873h-2.826c0,0-3.373,0.272-4.558,1.457l-9.907,5.782c0,0-0.409,0.5,0.046,1.366l4.208,6.009
	c0,0,0.729,0.592,1.505-0.091l8.266-4.325L193.385,227.457z"/>
<path fill-rule="evenodd" clip-rule="evenodd" fill="#E05C5C" d="M151.38,208.222c0,11.098-11.577,10.295-11.577,10.295
	c-7.544,0-10.396-8.275-10.396-8.275s-0.197-1.125-1.476-1.125c-1.279,0-1.663,1.213-1.663,1.213
	c-0.933,9.37-11.635,8.06-11.635,8.06c-10.485,0-10.043-9.777-10.043-9.777c-1.918-0.897-1.849-4.36-1.849-4.36
	c0-3.078,4.22-3.206,4.22-3.206c4.306-0.296,13.788,0.723,17.292,3.172c1.534,0.77,2.36,1.653,3.831,1.653s3.905-1.619,3.905-1.619
	c2.587-3.23,17.02-3.177,18.618-3.177c1.598,0,2.493,0.32,2.493,2.949C153.101,206.653,151.38,208.222,151.38,208.222z
	 M106.582,204.304h-1.576c-0.436,0-0.788,0.354-0.788,0.79c0,0.437,0.353,0.79,0.788,0.79h1.576c0.435,0,0.788-0.354,0.788-0.79
	C107.37,204.658,107.017,204.304,106.582,204.304z M150.693,204.304h-1.575c-0.435,0-0.787,0.354-0.787,0.79
	c0,0.437,0.353,0.79,0.787,0.79h1.575c0.436,0,0.788-0.354,0.788-0.79C151.481,204.658,151.129,204.304,150.693,204.304z"/>
<g>
	<path fill="#E05C5C" d="M147.477,89.076c0,0-23.002,0-24.246,0c-1.243,0-1.969,0.207-1.969,1.037c0,0.828-0.414,2.175,1.762,2.175
		c1.451,0,19.997,0,22.485,0c2.485,0,3.729,1.037,3.729,3.108c0,2.666-2.488,2.694-4.249,2.694c-1.14,0-22.276,0-25.281,0
		s-3.834-1.14-3.834-4.456c0-3.315,0-26.731,0-26.731s-1.969,0-4.353,0c-2.383,0-3.334-1.174-3.314-2.799
		c0.022-1.968,1.762-2.59,4.041-2.59s5.387,0,7.355,0s2.488,1.657,2.488,3.419s0,4.974,0,4.974h35.954L147.477,89.076z"/>
	<circle fill="#E05C5C" cx="119.242" cy="104.879" r="4.456"/>
	<circle fill="#E05C5C" cx="144.213" cy="104.879" r="4.455"/>
	<path fill="#E05C5C" d="M131.416,41.033c20.38,0,36.958,16.577,36.958,36.955c0,20.379-16.578,36.957-36.958,36.957
		c-20.377,0-36.955-16.578-36.955-36.957C94.461,57.61,111.039,41.033,131.416,41.033 M131.416,33.572
		C106.887,33.572,87,53.46,87,77.988c0,24.532,19.887,44.417,44.416,44.417c24.53,0,44.419-19.885,44.419-44.417
		C175.835,53.46,155.946,33.572,131.416,33.572L131.416,33.572z"/>
</g>
<g>
	<path fill="#E05C5C" d="M58.104,214.503c0,0-10.055,0-10.599,0c-0.543,0-0.861,0.091-0.861,0.454c0,0.361-0.181,0.949,0.771,0.949
		c0.634,0,8.742,0,9.829,0c1.087,0,1.63,0.454,1.63,1.36c0,1.165-1.087,1.177-1.857,1.177c-0.498,0-9.738,0-11.052,0
		s-1.676-0.498-1.676-1.946c0-1.45,0-11.687,0-11.687s-0.861,0-1.903,0c-1.042,0-1.457-0.514-1.448-1.224
		c0.01-0.86,0.77-1.133,1.766-1.133c0.996,0,2.355,0,3.216,0c0.86,0,1.087,0.726,1.087,1.495c0,0.771,0,2.174,0,2.174h15.717
		L58.104,214.503z"/>
	<circle fill="#E05C5C" cx="45.761" cy="221.411" r="1.948"/>
	<circle fill="#E05C5C" cx="56.677" cy="221.411" r="1.948"/>
	<path fill="#E05C5C" d="M51.083,193.501c8.909,0,16.156,7.246,16.156,16.155s-7.247,16.155-16.156,16.155
		c-8.908,0-16.155-7.246-16.155-16.155S42.175,193.501,51.083,193.501 M51.083,190.24c-10.723,0-19.417,8.693-19.417,19.416
		c0,10.724,8.693,19.416,19.417,19.416S70.5,220.38,70.5,209.656C70.5,198.934,61.806,190.24,51.083,190.24L51.083,190.24z"/>
</g>
</svg>
